<svg xmlns="http://www.w3.org/2000/svg"  viewBox="0 0 50 50" width="50px" height="50px"><path d="M 7 4 C 5.3549904 4 4 5.3549904 4 7 C 4 8.6450096 5.3549904 10 7 10 C 8.2931586 10 9.3951413 9.15733 9.8125 8 L 43 8 C 43.56503 8 44 8.4349698 44 9 L 44 24 C 44 24.56503 43.56503 25 43 25 L 24.414062 25 L 29.707031 19.707031 L 28.292969 18.292969 L 20.585938 26 L 28.292969 33.707031 L 29.707031 32.292969 L 24.414062 27 L 43 27 C 44.64497 27 46 25.64497 46 24 L 46 9 C 46 7.3550302 44.64497 6 43 6 L 9.8125 6 C 9.3951413 4.84267 8.2931586 4 7 4 z M 7 6 C 7.5641294 6 8 6.4358706 8 7 C 8 7.5641294 7.5641294 8 7 8 C 6.4358706 8 6 7.5641294 6 7 C 6 6.4358706 6.4358706 6 7 6 z M 5 25 A 1 1 0 0 0 4 26 A 1 1 0 0 0 5 27 A 1 1 0 0 0 6 26 A 1 1 0 0 0 5 25 z M 9 25 A 1 1 0 0 0 8 26 A 1 1 0 0 0 9 27 A 1 1 0 0 0 10 26 A 1 1 0 0 0 9 25 z M 13 25 A 1 1 0 0 0 12 26 A 1 1 0 0 0 13 27 A 1 1 0 0 0 14 26 A 1 1 0 0 0 13 25 z M 17 25 A 1 1 0 0 0 16 26 A 1 1 0 0 0 17 27 A 1 1 0 0 0 18 26 A 1 1 0 0 0 17 25 z M 5 29 A 1 1 0 0 0 4 30 A 1 1 0 0 0 5 31 A 1 1 0 0 0 6 30 A 1 1 0 0 0 5 29 z M 5 33 A 1 1 0 0 0 4 34 A 1 1 0 0 0 5 35 A 1 1 0 0 0 6 34 A 1 1 0 0 0 5 33 z M 5 37 A 1 1 0 0 0 4 38 A 1 1 0 0 0 5 39 A 1 1 0 0 0 6 38 A 1 1 0 0 0 5 37 z M 43 39 C 41.35499 39 40 40.35499 40 42 C 40 43.64501 41.35499 45 43 45 C 44.64501 45 46 43.64501 46 42 C 46 40.35499 44.64501 39 43 39 z M 5 41 A 1 1 0 0 0 4 42 A 1 1 0 0 0 5 43 A 1 1 0 0 0 6 42 A 1 1 0 0 0 5 41 z M 9 41 A 1 1 0 0 0 8 42 A 1 1 0 0 0 9 43 A 1 1 0 0 0 10 42 A 1 1 0 0 0 9 41 z M 13 41 A 1 1 0 0 0 12 42 A 1 1 0 0 0 13 43 A 1 1 0 0 0 14 42 A 1 1 0 0 0 13 41 z M 17 41 A 1 1 0 0 0 16 42 A 1 1 0 0 0 17 43 A 1 1 0 0 0 18 42 A 1 1 0 0 0 17 41 z M 21 41 A 1 1 0 0 0 20 42 A 1 1 0 0 0 21 43 A 1 1 0 0 0 22 42 A 1 1 0 0 0 21 41 z M 25 41 A 1 1 0 0 0 24 42 A 1 1 0 0 0 25 43 A 1 1 0 0 0 26 42 A 1 1 0 0 0 25 41 z M 29 41 A 1 1 0 0 0 28 42 A 1 1 0 0 0 29 43 A 1 1 0 0 0 30 42 A 1 1 0 0 0 29 41 z M 33 41 A 1 1 0 0 0 32 42 A 1 1 0 0 0 33 43 A 1 1 0 0 0 34 42 A 1 1 0 0 0 33 41 z M 37 41 A 1 1 0 0 0 36 42 A 1 1 0 0 0 37 43 A 1 1 0 0 0 38 42 A 1 1 0 0 0 37 41 z M 43 41 C 43.564129 41 44 41.435871 44 42 C 44 42.564129 43.564129 43 43 43 C 42.435871 43 42 42.564129 42 42 C 42 41.435871 42.435871 41 43 41 z"/></svg>